<svg width="18" height="18" viewBox="0 0 18 18" fill="none" xmlns="http://www.w3.org/2000/svg">
<path d="M9 3.75C12.142 3.75 14.0993 3.87014 14.8721 4.08008C15.5471 4.26758 15.9824 4.70293 16.1699 5.37793C16.2674 5.73039 16.3349 6.20295 16.3799 6.80273C16.4324 7.40264 16.4551 7.92017 16.4551 8.37012L16.5 9C16.5 10.6422 16.3799 11.8496 16.1699 12.6221C15.9824 13.2971 15.5471 13.7324 14.8721 13.9199C14.5195 14.0174 13.8744 14.0849 12.8848 14.1299C11.9099 14.1824 11.0173 14.2051 10.1924 14.2051L9 14.25C5.85802 14.25 3.90069 14.1299 3.12793 13.9199C2.45293 13.7324 2.01758 13.2971 1.83008 12.6221C1.73263 12.2696 1.6651 11.7971 1.62012 11.1973C1.56763 10.5974 1.54492 10.0798 1.54492 9.62988L1.5 9C1.5 7.35777 1.62014 6.15045 1.83008 5.37793C2.01758 4.70293 2.45293 4.26758 3.12793 4.08008C3.48051 3.98263 4.12559 3.9151 5.11523 3.87012C6.09015 3.81763 6.98268 3.79492 7.80762 3.79492L9 3.75ZM7.5 11.25L11.3926 9L7.5 6.75V11.25Z" fill="#828282"/>
</svg>
