<svg width="18" height="18" viewBox="0 0 18 18" fill="none" xmlns="http://www.w3.org/2000/svg">
<path d="M9 1.53003C13.1249 1.53003 16.4998 4.89734 16.5 9.04468C16.504 10.8339 15.8678 12.5659 14.707 13.9275C13.5463 15.289 11.9372 16.1914 10.1699 16.4705V11.2205H11.918L12.2549 9.04468H10.1699V7.6355C10.1699 7.043 10.4626 6.4646 11.3926 6.4646H12.3379V4.61206C12.3379 4.61206 11.4825 4.47046 10.665 4.47046C8.94756 4.47046 7.83011 5.505 7.83008 7.38745V9.04468H5.9248V11.2205H7.83008V16.4705C4.24508 15.908 1.5 12.7947 1.5 9.04468C1.50019 4.89734 4.87512 1.53003 9 1.53003Z" fill="#828282"/>
</svg>
