<svg width="18" height="18" viewBox="0 0 18 18" fill="none" xmlns="http://www.w3.org/2000/svg">
<path d="M12.1504 1.5C14.5501 1.50021 16.4998 3.44992 16.5 5.84961V12.1504C16.4999 13.3039 16.0413 14.4099 15.2256 15.2256C14.4099 16.0413 13.3039 16.4999 12.1504 16.5H5.84961C3.44992 16.4998 1.50021 14.5501 1.5 12.1504V5.84961C1.5001 4.69606 1.95872 3.59011 2.77441 2.77441C3.59011 1.95872 4.69606 1.5001 5.84961 1.5H12.1504ZM5.7002 3C4.98411 3 4.29736 3.28467 3.79102 3.79102C3.28467 4.29736 3 4.98411 3 5.7002V12.2998C3 13.7923 4.2077 15 5.7002 15H12.2998C13.0159 15 13.7026 14.7153 14.209 14.209C14.7153 13.7026 15 13.0159 15 12.2998V5.7002C15 4.2077 13.7923 3 12.2998 3H5.7002ZM9 5.25C9.99456 5.25 10.9481 5.64537 11.6514 6.34863C12.3546 7.05189 12.75 8.00544 12.75 9C12.75 9.99456 12.3546 10.9481 11.6514 11.6514C10.9481 12.3546 9.99456 12.75 9 12.75C8.00544 12.75 7.05189 12.3546 6.34863 11.6514C5.64537 10.9481 5.25 9.99456 5.25 9C5.25 8.00544 5.64537 7.05189 6.34863 6.34863C7.05189 5.64537 8.00544 5.25 9 5.25ZM9 6.75C8.40326 6.75 7.83114 6.98722 7.40918 7.40918C6.98722 7.83114 6.75 8.40326 6.75 9C6.75 9.59674 6.98722 10.1689 7.40918 10.5908C7.83114 11.0128 8.40326 11.25 9 11.25C9.59674 11.25 10.1689 11.0128 10.5908 10.5908C11.0128 10.1689 11.25 9.59674 11.25 9C11.25 8.40326 11.0128 7.83114 10.5908 7.40918C10.1689 6.98722 9.59674 6.75 9 6.75ZM12.9375 4.125C13.1861 4.125 13.4248 4.2236 13.6006 4.39941C13.7764 4.57523 13.875 4.81386 13.875 5.0625C13.875 5.31114 13.7764 5.54977 13.6006 5.72559C13.4248 5.9014 13.1861 6 12.9375 6C12.6889 6 12.4502 5.9014 12.2744 5.72559C12.0986 5.54977 12 5.31114 12 5.0625C12 4.81386 12.0986 4.57523 12.2744 4.39941C12.4502 4.2236 12.6889 4.125 12.9375 4.125Z" fill="#828282"/>
</svg>
