<svg width="18" height="18" viewBox="0 0 18 18" fill="none" xmlns="http://www.w3.org/2000/svg">
<path d="M14.25 2.25C14.6478 2.25 15.0292 2.40815 15.3105 2.68945C15.5919 2.97076 15.75 3.35218 15.75 3.75V14.25C15.75 14.6478 15.5919 15.0292 15.3105 15.3105C15.0292 15.5919 14.6478 15.75 14.25 15.75H3.75C3.35218 15.75 2.97076 15.5919 2.68945 15.3105C2.40815 15.0292 2.25 14.6478 2.25 14.25V3.75C2.25 3.35218 2.40815 2.97076 2.68945 2.68945C2.97076 2.40815 3.35218 2.25 3.75 2.25H14.25ZM4.125 13.875H6.20215V7.59766H4.125V13.875ZM11.4297 7.45508C10.7924 7.45521 10.0505 7.84502 9.69043 8.42969V7.59766H7.59766V13.875H9.69043V10.1777C9.69043 9.60026 10.155 9.12797 10.7324 9.12793C11.0107 9.12793 11.2777 9.23791 11.4746 9.43457C11.6715 9.63148 11.7822 9.89926 11.7822 10.1777V13.875H13.875V9.90039C13.875 9.25195 13.6177 8.62942 13.1592 8.1709C12.7007 7.71237 12.0781 7.45508 11.4297 7.45508ZM5.16016 3.89258C4.82399 3.89258 4.50137 4.02597 4.26367 4.26367C4.02597 4.50137 3.89258 4.82399 3.89258 5.16016C3.89266 5.85758 4.46271 6.41992 5.16016 6.41992C5.49427 6.41988 5.81452 6.28704 6.05078 6.05078C6.28704 5.81452 6.41988 5.49427 6.41992 5.16016C6.41992 4.46271 5.85758 3.89266 5.16016 3.89258Z" fill="#828282"/>
</svg>
